<?xml version="1.0" standalone="no"?>
<!DOCTYPE svg PUBLIC "-//W3C//DTD SVG 20010904//EN"
 "http://www.w3.org/TR/2001/REC-SVG-20010904/DTD/svg10.dtd">
<svg version="1.0" xmlns="http://www.w3.org/2000/svg"
 width="781.000000pt" height="781.000000pt" viewBox="0 0 781.000000 781.000000"
 preserveAspectRatio="xMidYMid meet">
<metadata>
Created by potrace 1.11, written by Peter Selinger 2001-2013
</metadata>
<g transform="translate(0.000000,781.000000) scale(0.100000,-0.100000)"
fill="#000000" stroke="none">
<path d="M5630 7268 c-320 -49 -579 -165 -825 -369 -375 -310 -661 -794 -795
-1344 -6 -27 -14 -59 -16 -70 -2 -11 -6 -31 -9 -45 -11 -56 -27 -147 -31 -175
-2 -16 -6 -52 -10 -80 -17 -129 -21 -238 -18 -450 2 -126 5 -239 7 -250 3 -11
8 -49 12 -85 4 -36 9 -74 11 -85 2 -10 6 -37 10 -60 18 -122 75 -348 124 -490
105 -301 266 -590 448 -806 272 -321 581 -522 927 -604 446 -106 902 1 1291
301 119 92 324 300 373 379 l12 20 -4 -20 c-3 -11 -23 -69 -45 -130 -76 -211
-324 -891 -382 -1050 -32 -88 -91 -250 -130 -360 -40 -110 -76 -209 -81 -220
-5 -11 -22 -58 -38 -105 -17 -47 -73 -202 -125 -345 -52 -142 -94 -260 -93
-261 4 -4 33 -6 67 -5 l35 1 39 108 c21 59 47 126 57 149 10 24 19 46 19 50 0
4 25 75 56 157 31 83 74 201 96 261 22 61 44 119 49 130 5 11 13 34 18 50 5
17 19 55 31 85 11 30 31 84 44 120 13 36 83 225 156 420 72 195 170 459 216
585 47 127 91 246 99 265 25 63 136 365 140 380 2 8 41 112 85 230 69 184 138
393 154 473 22 103 55 282 61 327 4 30 9 64 11 74 25 135 25 689 -1 769 -2 7
-6 35 -9 63 -5 45 -25 156 -41 224 -3 14 -10 45 -16 70 -5 25 -11 50 -13 55
-1 6 -8 30 -15 55 -35 129 -122 352 -187 483 -248 496 -619 859 -1053 1031
-90 36 -242 76 -346 91 -71 11 -300 12 -365 3z m1500 -993 c64 -26 108 -61
141 -114 58 -91 67 -189 35 -376 -4 -24 -26 -103 -34 -125 -3 -8 -6 -17 -7
-20 -12 -46 -30 -88 -101 -235 -56 -115 -72 -145 -142 -260 -64 -104 -66 -108
-75 -119 -4 -6 -40 -56 -79 -111 -76 -106 -197 -260 -288 -365 -103 -120 -399
-415 -516 -515 -64 -55 -121 -105 -128 -110 -10 -9 -137 -110 -161 -127 -5 -4
-23 -18 -40 -31 -41 -32 -256 -175 -330 -219 -203 -120 -425 -215 -595 -254
-62 -14 -232 -16 -278 -3 -117 32 -191 111 -216 231 -46 226 72 569 335 979
40 63 77 119 81 124 5 6 40 53 80 105 209 278 477 569 723 785 50 43 92 81 95
84 10 12 158 130 235 187 241 181 502 334 724 424 205 83 429 110 541 65z"/>
<path d="M1910 7247 c-3 -3 -21 -8 -40 -11 -19 -3 -105 -19 -190 -36 -85 -17
-171 -33 -190 -36 -19 -3 -55 -10 -80 -16 -25 -5 -56 -11 -70 -13 -34 -5 -341
-64 -360 -70 -8 -2 -31 -6 -50 -9 -19 -3 -46 -8 -60 -11 -14 -2 -47 -9 -75
-15 -27 -5 -68 -13 -90 -16 -22 -3 -42 -7 -45 -9 -3 -2 -26 -6 -50 -10 -25 -3
-52 -8 -60 -10 -8 -2 -28 -7 -45 -10 -34 -6 -69 -12 -105 -20 -14 -3 -36 -7
-50 -10 -173 -32 -250 -50 -251 -59 -1 -15 -1 -2438 0 -2454 1 -9 10 -12 29
-9 30 5 319 61 427 82 39 8 84 16 100 19 17 3 41 8 55 11 14 3 50 9 80 15 61
11 124 24 180 35 3 1 25 5 50 9 25 5 54 10 65 12 11 2 126 24 255 49 129 25
246 47 260 50 14 3 41 8 60 11 19 3 43 7 52 10 10 3 30 7 45 10 16 2 37 6 48
9 20 4 20 -1 20 -1030 0 -914 -2 -1035 -15 -1036 -8 0 -396 0 -862 0 l-848 -1
-1 -31 c-1 -44 -1 -2089 0 -2104 1 -10 363 -13 1775 -13 l1774 0 0 1074 0
1074 -842 1 c-462 0 -851 0 -863 0 l-23 1 -2 2286 c-2 1257 -5 2283 -8 2281z"/>
</g>
</svg>
