<svg id="Layer_1" data-name="Layer 1" xmlns="http://www.w3.org/2000/svg" viewBox="0 0 201.89 387.49"><title>D</title><path d="M371.84,282V199.41a75.43,75.43,0,0,0-14.51-45.1C323.6,109,260.89,109,255.62,109H170.54V228.06h15.54a3.44,3.44,0,0,1,3.44,3.44v44a3.44,3.44,0,0,1-3.44,3.44H170.54V496.49h86.22c28.21,0,63.43.86,90.27-26C378.29,439.27,371.94,410.67,371.84,282Zm-5.25-24.31A21.28,21.28,0,0,1,345.3,279H198.21a3.44,3.44,0,0,1-3.44-3.44v-44a3.44,3.44,0,0,1,3.44-3.44H345.14a21.45,21.45,0,0,1,21.45,21.45Z" transform="translate(-170.54 -109)"/></svg>