<svg id="Layer_1" data-name="Layer 1" xmlns="http://www.w3.org/2000/svg" viewBox="0 0 1760.49 801.6"><defs><style>.cls-1{fill:#0093a0;}</style></defs><title>DSGN</title><path class="cls-1" d="M994.18,435.74v11.93a44.47,44.47,0,0,0,44.47,44.47h308a43.4,43.4,0,0,0,43.4-43.4v1.54H1194.29V439.4h206.63V942H1222.56c-58.35,0-131.2,1.82-186.7-53.68C1018,870.5,1006,849.19,1006,849.19c-23.23-41.39-23.75-81.84-22.63-101.48l-.05-247.85q0-73.28.05-146.53c-1.08-32.34-1.27-142.74,69.84-189.68,19-12.54,38.6-21.65,78.34-21.65,15.2,0,268.84,1.38,268.84,1.38V392.67l-361.71-1.38A44.45,44.45,0,0,0,994.18,435.74Z" transform="translate(-87.51 -142)"/><path class="cls-1" d="M903.26,889.84c-53.08,57.82-128.36,53.7-186.72,53.7H536l0-450,372.74,0c16.2,0,21.42-22,6.83-29.06C901.34,457.67,880,452.46,848,452.46l-207.65.2c-90.26,0-104.4-49.55-104.4-64.38V328.19a155.3,155.3,0,0,1,31.65-94.63C637.73,142,765.51,142,776.34,142h176V388.28H576.44c-16.35,0-24.72,20.26-12.62,31.25,13.15,11.94,36.18,22.2,76.51,22.2H848c102.08,0,104.38,40,104.38,51.91v6.25C952.19,777.74,955.59,832.84,903.26,889.84Z" transform="translate(-87.51 -142)"/><path class="cls-1" d="M503.91,499.85V329c0-33.46-10-66.46-30-93.3C404.12,142,274.41,142,263.5,142h-176V388.28h32.14a7.11,7.11,0,0,1,7.12,7.11v91.09a7.12,7.12,0,0,1-7.12,7.12H87.51V943.54H265.86c58.36,0,131.2,1.78,186.72-53.7C517.24,825.18,504.11,766,503.91,499.85ZM493,449.58a44,44,0,0,1-44,44H144.75a7.12,7.12,0,0,1-7.11-7.12V395.39a7.11,7.11,0,0,1,7.11-7.11H448.68A44.36,44.36,0,0,1,493,432.64Z" transform="translate(-87.51 -142)"/><path class="cls-1" d="M1848,142.22v800a39.44,39.44,0,0,1-21.84-6.43L1465.23,723.65a15.1,15.1,0,0,0-22.76,13V942.26h-10.9q.06-400.12.11-800.26a39.38,39.38,0,0,1,18.17,5l365.89,227.43a14,14,0,0,0,21.36-11.86V142.22Z" transform="translate(-87.51 -142)"/><polygon points="116.66 713.03 116.66 757.41 43.24 757.41 43.24 713.03 79.01 713.03 79.01 670.13 43.24 676.98 43.24 625.75 79.01 618.9 80.83 618.56 80.89 618.56 80.89 713.03 116.66 713.03"/><path d="M288,811.2A75,75,0,0,1,285,831c-.16.49-.34,1-.53,1.51a15.7,15.7,0,0,1-.65,1.82l-23.85,64.48h-2.1l2.38-6.55,16.05-44.16.46-1.3a40.64,40.64,0,0,1-5.8,6.54c-6.3,5.77-13.92,9.14-22.16,9.14-21.48,0-38.89-23-38.89-51.3s17.41-51.32,38.89-51.32S288,782.84,288,811.2Z" transform="translate(-87.51 -142)"/><ellipse class="cls-1" cx="249.02" cy="811.34" rx="41.62" ry="14.96" transform="translate(-588.28 271.72) rotate(-45)"/><polygon points="15.49 618 25.49 637 30.49 634 26.49 611 15.49 618"/></svg>